<?xml version="1.0" encoding="UTF-8" standalone="no"?>
<!DOCTYPE svg PUBLIC "-//W3C//DTD SVG 1.1//EN" "http://www.w3.org/Graphics/SVG/1.1/DTD/svg11.dtd">
<svg width="100%" height="100%" viewBox="0 0 442 271" version="1.1" xmlns="http://www.w3.org/2000/svg" xmlns:xlink="http://www.w3.org/1999/xlink" xml:space="preserve" xmlns:serif="http://www.serif.com/" style="fill-rule:evenodd;clip-rule:evenodd;stroke-miterlimit:1.5;">
    <g transform="matrix(1,0,0,1,-330.031,-305.966)">
        <g transform="matrix(1,0,0,1,44.0558,-22.6233)">
            <g transform="matrix(0.67292,0,0,0.67292,73.1416,174.942)">
                <circle cx="651.772" cy="437.617" r="179.845" style="fill:none;stroke:#000;stroke-width:14.86px;"/>
            </g>
        </g>
        <g transform="matrix(1,0,0,1,44.0558,-22.6233)">
            <g transform="matrix(8.50793e-17,1.38945,-1.11156,6.80634e-17,972.839,-146.679)">
                <path d="M418.577,392.884L454.563,464.855L382.592,464.855L418.577,392.884Z" style="fill:none;stroke:#000;stroke-width:7.95px;stroke-linejoin:round;"/>
            </g>
        </g>
        <g transform="matrix(1,0,0,1,44.0558,-22.6233)">
            <g transform="matrix(1,-0,-0,1,285.975,328.589)">
                <path d="M356.252,57.092L377.073,53.034L381.131,73.855" style="fill:none;stroke:#000;stroke-width:10px;stroke-linecap:round;stroke-miterlimit:10;"/>
                <path d="M250.145,106.324L341.175,106.312C341.175,106.312 367.005,67.977 377.073,53.034" style="fill:none;stroke:#000;stroke-width:10px;stroke-linecap:round;stroke-linejoin:round;"/>
            </g>
        </g>
        <g transform="matrix(1,0,0,1,44.0558,-22.6233)">
            <g transform="matrix(1,0,0,1,0,46.1038)">
                <g transform="matrix(1,-0,-0,1,285.975,282.485)">
                    <path d="M67.428,163.414L47.428,163.417L47.425,143.417L67.425,143.414L67.428,163.414Z" style="fill:none;stroke:#000;stroke-width:10px;stroke-linecap:round;stroke-miterlimit:10;"/>
                    <path d="M170.15,153.398C170.15,153.398 104.609,153.408 67.426,153.414" style="fill:none;stroke:#000;stroke-width:10px;stroke-linecap:round;stroke-linejoin:round;"/>
                </g>
            </g>
        </g>
        <g transform="matrix(1,0,0,1,44.0558,-22.6233)">
            <g transform="matrix(1,0,0,1,17.9081,1.14305)">
                <g transform="matrix(1,-0,-0,1,268.067,327.446)">
                    <path d="M383.892,183.637C389.411,183.636 393.892,179.154 393.891,173.635C393.89,168.116 389.408,163.636 383.889,163.637C378.37,163.638 373.89,168.119 373.891,173.638C373.892,179.158 378.373,183.638 383.892,183.637Z" style="fill:none;stroke:#000;stroke-width:10px;stroke-linecap:round;stroke-miterlimit:10;"/>
                    <path d="M373.891,173.638C339.08,173.644 280.233,173.654 280.233,173.654" style="fill:none;stroke:#000;stroke-width:10px;stroke-linecap:round;stroke-linejoin:round;"/>
                </g>
            </g>
        </g>
        <g transform="matrix(1,0,0,1,44.0558,-22.6233)">
            <g transform="matrix(1,0,0,1,0,5.77448)">
                <path d="M456.59,485.374L565.644,553.549" style="fill:none;stroke:#000;stroke-width:10px;stroke-linejoin:round;"/>
            </g>
        </g>
        <g transform="matrix(1,0,0,1,44.0558,-22.6233)">
            <path d="M456.125,484.913L456.1,558.2" style="fill:none;stroke:#000;stroke-width:10px;stroke-linecap:round;stroke-linejoin:round;"/>
        </g>
        <g transform="matrix(1,0,0,1,44.0558,-22.6233)">
            <g transform="matrix(8.96808e-17,-1.4646,1.17168,7.17447e-17,20.9986,1119.64)">
                <path d="M418.577,392.884L454.563,464.855L382.592,464.855L418.577,392.884Z" style="fill:none;stroke:#000;stroke-width:7.54px;stroke-linejoin:round;"/>
            </g>
        </g>
        <g transform="matrix(1,0,0,1,44.0558,-22.6233)">
            <g transform="matrix(1.17384,2.71051e-20,-2.71051e-20,1.17384,-65.9653,-68.5838)">
                <path d="M538.072,461.619L538.099,384.9" style="fill:none;stroke:#000;stroke-width:8.52px;stroke-linecap:round;stroke-linejoin:round;"/>
            </g>
        </g>
    </g>
</svg>
